<?xml version="1.0" standalone="no"?><!-- Generator: Adobe Fireworks CS6, Export SVG Extension by Aaron Beall (http://fireworks.abeall.com) . Version: 0.6.1  --><!DOCTYPE svg PUBLIC "-//W3C//DTD SVG 1.1//EN" "http://www.w3.org/Graphics/SVG/1.1/DTD/svg11.dtd"><svg id="Untitled-Page%201" viewBox="0 0 74 60" style="background-color:#ffffff00" version="1.1"	xmlns="http://www.w3.org/2000/svg" xmlns:xlink="http://www.w3.org/1999/xlink" xml:space="preserve"	x="0px" y="0px" width="74px" height="60px">	<path d="M 62.5551 4.7719 C 62.7119 4.7719 64.6716 4.3025 65.7691 3.9113 C 67.6505 3.2855 70.0021 2.3468 71.9619 1.1734 C 71.178 3.9113 68.5911 7.588 65.3771 9.4655 C 65.3771 9.4655 65.2987 9.5437 65.5339 9.5437 C 65.6907 9.5437 66.8665 9.309 67.572 9.1526 C 69.5318 8.7614 71.9619 8.0574 74 7.1969 C 73.6864 7.6662 73.2161 8.1356 72.9025 8.6832 C 71.2563 10.7953 68.5911 13.3768 66.4745 14.9413 C 66.4745 15.5672 66.553 16.7405 66.553 16.897 L 66.4745 19.4003 C 66.2394 21.5124 66.0043 23.8592 65.4555 26.1278 C 63.9661 32.2295 61.5361 38.4876 56.5191 44.6675 C 51.5805 50.7692 45.6229 54.6806 40.2139 56.8709 C 38.4111 57.575 36.5296 58.2008 34.8051 58.6702 C 34.4915 58.7484 28.9258 60 27.358 60 L 19.2055 60 C 12.8559 59.3742 6.3495 57.2621 0 53.429 C 1.1758 53.5072 3.2924 53.6636 3.4492 53.6636 C 9.5636 53.6636 16.4619 51.6297 22.4195 47.0926 C 21.8707 47.0143 21.2437 46.8579 20.7733 46.8579 C 17.0106 46.545 11.4449 43.4941 9.1716 38.8005 C 8.858 38.0965 8.5445 37.3142 8.3093 36.6102 C 9.4068 36.7666 10.8962 36.8448 11.1313 36.8448 C 11.9152 36.8448 14.4237 36.532 15.0508 36.2191 C 14.7373 36.1408 14.267 35.9843 14.0318 35.9061 C 13.483 35.7497 12.8559 35.4368 12.2288 35.2803 C 8.2309 34.0287 3.9195 28.631 3.3707 25.1891 C 3.2139 24.1721 2.9005 22.2164 2.9005 22.06 L 2.9005 21.1995 C 4.7034 22.2164 6.9767 22.8422 8.858 23.0769 L 9.7987 22.9987 C 5.4873 20.1825 3.6059 15.8801 3.1356 12.4381 C 3.1356 12.2034 3.0573 11.734 3.0573 11.5776 L 3.0573 9.1526 C 3.2924 7.0404 3.7627 4.9283 5.0954 2.8162 C 13.875 13.2203 23.9089 17.1317 33.3941 18.3833 C 34.2563 18.4615 35.7457 18.6962 35.9809 18.6962 L 36.4513 18.6962 C 36.2945 17.7575 36.1377 16.6623 36.1377 16.5059 L 36.1377 13.8462 C 37.2352 4.7719 44.2902 0 51.267 0 C 58.322 0 62.0848 4.7719 62.5551 4.7719 Z" fill="#64d2e9"/></svg>