<?xml version="1.0" standalone="no"?><!-- Generator: Adobe Fireworks CS6, Export SVG Extension by Aaron Beall (http://fireworks.abeall.com) . Version: 0.6.1  --><!DOCTYPE svg PUBLIC "-//W3C//DTD SVG 1.1//EN" "http://www.w3.org/Graphics/SVG/1.1/DTD/svg11.dtd"><svg id="Untitled-Page%201" viewBox="0 0 60 60" style="background-color:#ffffff00" version="1.1"	xmlns="http://www.w3.org/2000/svg" xmlns:xlink="http://www.w3.org/1999/xlink" xml:space="preserve"	x="0px" y="0px" width="60px" height="60px">	<path d="M 31.3541 32.1959 C 30.7523 32.7373 30.4513 32.7975 29.8495 32.7975 C 29.3681 32.7975 29.3079 32.7975 28.7663 32.4365 C 28.5858 32.3162 28.2849 32.1959 28.1043 31.9553 C 23.2899 27.2627 18.4754 22.3896 13.6609 17.5767 L 46.0381 17.5767 C 41.2237 22.4497 36.2888 27.5033 31.3541 32.1959 ZM 23.4704 29.8496 L 12.3972 40.9794 L 12.3972 18.8401 L 23.4704 29.8496 ZM 47.3621 40.9794 L 36.2888 29.9098 L 47.3621 18.9604 L 47.3621 40.9794 ZM 29.8495 34.843 C 31.7151 34.843 33.34 32.617 34.9649 31.2333 L 46.0381 42.1827 L 46.0381 42.303 L 13.7212 42.303 L 24.7342 31.2333 C 26.4794 32.7975 28.1043 34.843 29.8495 34.843 ZM 32.9188 0.1299 C 31.4142 -0.0505 30.1505 0.0096 29.97 0.0096 C 29.8495 0.0096 28.5858 0.0096 27.0812 0.1299 C 26.1183 0.1901 25.1555 0.4307 24.1926 0.5511 C 22.4473 0.8519 20.4012 1.5137 18.7162 2.1754 C 15.1053 3.6193 11.4945 5.8452 8.1244 9.455 C 5.2959 12.463 3.3099 15.832 2.1063 18.9003 C 0.8425 22.0888 0.2407 25.3976 0 28.5862 L 0 31.4138 C 0 31.5341 0.1204 31.7747 0.1204 32.0154 C 0.1204 33.2788 0.3611 34.5422 0.5416 35.8055 C 0.7221 37.0088 1.2036 38.573 1.6249 39.8364 C 2.0461 40.9193 2.5878 42.303 3.1896 43.5062 C 4.995 46.9955 8.1244 51.2068 12.0963 54.0344 C 15.7673 56.7417 19.4383 58.2457 23.1093 59.1481 C 24.4333 59.4489 25.6971 59.6896 27.0812 59.8701 C 28.5256 60.0505 29.8495 59.9904 29.97 59.9904 C 30.1505 59.9904 31.4142 59.9904 32.9188 59.8701 C 50.8526 57.7042 60 43.2054 60 29.9699 C 60 19.923 54.7643 7.9509 41.2838 2.1754 C 38.5757 1.0324 35.5667 0.3104 32.9188 0.1299 Z" fill="#333332"/></svg>