<?xml version="1.0" standalone="no"?><!-- Generator: Adobe Fireworks CS6, Export SVG Extension by Aaron Beall (http://fireworks.abeall.com) . Version: 0.6.1  --><!DOCTYPE svg PUBLIC "-//W3C//DTD SVG 1.1//EN" "http://www.w3.org/Graphics/SVG/1.1/DTD/svg11.dtd"><svg id="Untitled-Page%201" viewBox="0 0 60 60" style="background-color:#ffffff00" version="1.1"	xmlns="http://www.w3.org/2000/svg" xmlns:xlink="http://www.w3.org/1999/xlink" xml:space="preserve"	x="0px" y="0px" width="60px" height="60px">	<path d="M 60 30.7223 C 60 33.0337 59.7183 35.5377 59.1549 37.9454 C 58.3099 41.9904 56.338 46.3242 52.9577 50.5618 C 51.6432 52.199 49.7653 53.7399 48.3568 55.0883 C 47.1361 56.244 40.7512 60 38.9672 60 C 38.4977 60 37.5587 59.711 37.5587 58.9406 L 37.5587 48.6356 C 37.277 47.3836 36.9953 45.8427 35.6807 44.4944 C 36.338 44.3981 36.9953 44.2054 37.6526 44.1092 C 39.7183 43.6276 42.0658 43.1461 44.3192 41.4125 C 46.5728 39.679 47.6995 37.4638 48.3568 35.5377 C 48.5446 34.7673 48.8263 33.9968 48.9202 33.2263 C 49.108 32.4558 49.2019 31.6854 49.2958 30.9149 L 49.2958 27.833 C 48.9202 26.6774 48.7324 25.3291 48.2629 24.1733 C 47.8874 23.2103 46.1972 20.8989 46.1972 20.8026 C 46.1972 20.5136 46.5728 19.5505 46.6667 18.8764 C 46.7606 18.6838 46.7606 18.3949 46.7606 18.2022 C 46.7606 17.9133 46.8544 17.5281 46.8544 17.3355 C 46.8544 16.1797 46.291 13.2905 45.8216 12.7127 C 45.6339 12.4238 45.2582 12.52 45.0704 12.52 C 44.0375 12.52 42.5352 12.9053 41.5962 13.3869 C 40.0939 13.9647 37.6526 15.6982 37.3709 15.6982 C 37.1831 15.6982 35.399 15.1204 34.3661 15.0241 C 32.9578 14.8315 30.2347 14.7352 29.953 14.7352 C 29.7653 14.7352 26.9484 14.8315 25.6339 15.0241 C 24.601 15.1204 22.8169 15.6982 22.5352 15.6982 C 22.3474 15.6982 20.4694 14.3499 19.4366 13.8683 C 17.7465 13.0016 16.0563 12.4238 14.3661 12.52 C 13.4272 13.9647 13.2394 15.6982 13.2394 17.3355 C 13.2394 17.5281 13.1456 18.5875 13.3333 19.2616 C 13.4272 19.7432 13.8028 20.5136 13.8028 20.7063 C 13.8028 20.9952 12.2065 22.9213 11.6432 24.1733 C 10.892 25.8106 10.7042 27.6405 10.7042 29.374 C 10.7042 36.7897 13.709 43.435 24.3193 44.4944 C 23.0986 45.6501 22.723 47.0947 22.4413 48.4431 C 21.1268 49.1172 20.3755 49.2135 19.1549 49.2135 C 16.338 49.2135 15.399 47.9615 12.77 44.3981 C 12.3944 43.9166 11.7371 43.5313 11.2676 43.2424 C 10.6104 42.9534 9.3896 42.6645 9.108 42.6645 C 8.8263 42.6645 7.7935 42.7608 7.7935 43.3387 C 7.7935 44.0128 9.4836 45.0722 9.6713 45.1685 C 12.4883 47.3836 11.6432 50.6581 15.3052 52.3917 C 17.277 53.3547 17.6526 53.2584 19.3427 53.2584 C 19.5305 53.2584 21.3145 53.1621 22.3474 52.9695 L 22.4413 58.8443 C 22.0657 59.8073 21.5962 60 20.939 60 C 19.8122 60 16.6197 58.2664 16.0563 57.9775 C 9.7653 55.0883 3.5681 46.9984 1.7841 41.3162 C 1.3146 39.7752 0.8451 38.427 0.5634 36.9823 C 0.2817 35.4414 0 32.5522 0 32.3595 L 0 29.1814 C 1.6901 9.9197 16.0563 0 30.047 0 C 46.6667 0 60 13.8683 60 30.7223 ZM 11.1737 43.8203 C 11.1737 43.9166 11.2676 44.1092 11.2676 44.2054 C 11.1737 44.2054 11.2676 44.3018 10.9859 44.3018 C 10.7981 44.3018 10.6104 44.0128 10.6104 43.8203 L 11.1737 43.8203 ZM 12.2065 44.8796 C 12.3944 44.9759 12.4883 45.2648 12.5822 45.4575 C 12.4883 45.5538 12.4883 45.5538 12.3005 45.5538 C 12.0188 45.5538 11.831 45.3611 11.831 45.0722 C 11.831 44.8796 11.831 44.9759 11.9249 44.8796 L 12.2065 44.8796 ZM 13.8028 47.191 C 13.709 47.2873 13.709 47.2873 13.5211 47.2873 C 13.2394 47.2873 12.9578 46.9021 12.9578 46.7095 C 12.9578 46.5168 13.0516 46.4206 13.2394 46.4206 C 13.5211 46.4206 13.709 46.8058 13.8028 47.191 ZM 15.399 48.8282 C 15.399 48.9245 15.3052 49.1172 15.0235 49.1172 C 14.554 49.1172 14.3661 48.5393 14.3661 48.4431 C 14.3661 48.2504 14.4601 48.1541 14.6478 48.1541 C 15.1174 48.1541 15.1174 48.5393 15.399 48.8282 ZM 17.5587 49.9839 C 17.4648 50.1765 17.277 50.2729 16.9953 50.2729 C 16.6197 50.2729 16.4319 49.9839 16.4319 49.695 C 16.5258 49.5987 16.6197 49.5024 16.8075 49.5024 C 16.9953 49.5024 17.4648 49.695 17.5587 49.9839 ZM 22.2535 49.8877 C 22.2535 50.1765 22.0657 50.3692 21.7841 50.3692 L 21.2206 50.3692 C 21.2206 50.2729 21.1268 50.2729 21.1268 49.9839 C 21.1268 49.7914 21.5962 49.5987 21.7841 49.5987 C 22.0657 49.5987 22.2535 49.695 22.2535 49.8877 ZM 19.9061 50.0803 C 19.9061 50.0803 20 49.9839 20 50.2729 C 20 50.5618 19.4366 50.6581 19.3427 50.6581 C 18.8732 50.6581 18.8732 50.3692 18.8732 50.2729 C 18.8732 49.8877 19.1549 49.9839 19.3427 49.9839 C 19.6244 49.9839 19.7183 49.9839 19.9061 50.0803 Z" fill="#323231"/></svg>